<?xml version="1.0" encoding="iso-8859-1"?>
<!-- Generator: Adobe Illustrator 19.0.0, SVG Export Plug-In . SVG Version: 6.00 Build 0)  -->
<svg version="1.1" id="Layer_1" xmlns="http://www.w3.org/2000/svg" xmlns:xlink="http://www.w3.org/1999/xlink" x="0px" y="0px"
	 viewBox="0 0 512 512" style="enable-background:new 0 0 512 512;" xml:space="preserve">
<path style="fill:#B6B6BF;" d="M511.777,292.397l-7.456-47.527l-5.343-33.391l-5.232-33.391l-5.343-33.391l-10.017-63.777
	c-1.224-8.125-8.237-14.136-16.473-14.136H395.13c-8.237,0-15.249,6.01-16.473,14.136l-10.017,63.777l-5.343,33.391l-5.232,33.391
	l-5.343,33.391l-7.456,47.527c-0.78,4.787,0.557,9.685,3.784,13.357c3.117,3.784,7.792,5.899,12.689,5.899h133.565
	c4.896,0,9.572-2.115,12.689-5.899C511.22,302.08,512.557,297.183,511.777,292.397z"/>
<g>
	<polygon style="fill:#FF0C38;" points="493.746,178.087 363.297,178.087 368.64,144.696 488.403,144.696 	"/>
	<polygon style="fill:#FF0C38;" points="504.321,244.87 352.722,244.87 358.065,211.478 498.978,211.478 	"/>
</g>
<path style="fill:#DBE1F1;" d="M300.522,278.261v-83.478c0-13.69-15.693-21.593-26.713-13.357L256,194.783l-89.043,66.783v-66.783
	c0-13.802-15.804-21.593-26.713-13.357L6.678,281.6C2.449,284.717,0,289.725,0,294.957v200.348C0,504.543,7.456,512,16.696,512
	h478.609c9.239,0,16.696-7.457,16.696-16.696V278.261H300.522z"/>
<path style="fill:#D0D5E5;" d="M512,278.261v217.043c0,9.238-7.456,16.696-16.696,16.696H256V194.783l17.809-13.357
	c11.02-8.237,26.713-0.334,26.713,13.357v83.478H512z"/>
<path style="fill:#7C84E8;" d="M289.391,445.217h-66.783c-9.217,0-16.696-7.473-16.696-16.696v-66.783
	c0-9.223,7.479-16.696,16.696-16.696h66.783c9.217,0,16.696,7.473,16.696,16.696v66.783
	C306.087,437.744,298.608,445.217,289.391,445.217z"/>
<path style="fill:#515BE0;" d="M289.391,345.043H256v100.174h33.391c9.217,0,16.696-7.473,16.696-16.696v-66.783
	C306.087,352.516,298.608,345.043,289.391,345.043z"/>
<path style="fill:#7C84E8;" d="M155.826,445.217H89.043c-9.217,0-16.696-7.473-16.696-16.696v-66.783
	c0-9.223,7.479-16.696,16.696-16.696h66.783c9.217,0,16.696,7.473,16.696,16.696v66.783
	C172.522,437.744,165.043,445.217,155.826,445.217z"/>
<path style="fill:#515BE0;" d="M422.957,445.217h-66.783c-9.217,0-16.696-7.473-16.696-16.696v-66.783
	c0-9.223,7.479-16.696,16.696-16.696h66.783c9.217,0,16.696,7.473,16.696,16.696v66.783
	C439.652,437.744,432.174,445.217,422.957,445.217z"/>
<path style="fill:#91867E;" d="M428.522,0H294.957C279.152,0,265.128,7.235,256,18.699c-3.563,4.341-6.345,9.238-8.237,14.692
	h-86.372c-27.603,0-50.087,22.483-50.087,50.087s22.483,50.087,50.087,50.087h133.565c21.816,0,40.292-13.913,47.193-33.391h119.763
	c9.239,0,16.696-7.457,16.696-16.696V50.087C478.609,22.483,456.125,0,428.522,0z"/>
<path style="fill:#847976;" d="M478.609,50.087v33.391c0,9.238-7.456,16.696-16.696,16.696H342.15
	c-6.901,19.478-25.377,33.391-47.193,33.391H256V18.699C265.128,7.235,279.152,0,294.957,0h133.565
	C456.125,0,478.609,22.483,478.609,50.087z"/>
<g>
</g>
<g>
</g>
<g>
</g>
<g>
</g>
<g>
</g>
<g>
</g>
<g>
</g>
<g>
</g>
<g>
</g>
<g>
</g>
<g>
</g>
<g>
</g>
<g>
</g>
<g>
</g>
<g>
</g>
</svg>
