<svg xmlns="http://www.w3.org/2000/svg" xmlns:xlink="http://www.w3.org/1999/xlink" style="enable-background:new 0 0 511.999 511.999;" xml:space="preserve" width="511.999" height="511.999"><rect id="backgroundrect" width="100%" height="100%" x="0" y="0" fill="none" stroke="none"></rect><g class="currentLayer" style=""><title>Layer 1</title><g id="svg_1" class="selected" fill="#ffffff" fill-opacity="1">	<g id="svg_2" fill="#ffffff" fill-opacity="1">		<g id="svg_3" fill="#ffffff" fill-opacity="1">			<path d="M56.661,164.164c-6.277,0.507-12.484-2.871-15.259-8.926c-3.551-7.742-0.154-16.892,7.586-20.443l101.582-46.591     c3.629-1.667,7.768-1.856,11.534-0.533l198.544,69.697c8.034,2.82,12.262,11.621,9.442,19.655     c-2.226,6.345-8.184,10.313-14.549,10.315c-1.694,0-3.417-0.282-5.107-0.874l-0.056-0.02v48.207     c10.44-5.14,32.568-14.519,65.913-21.092V166.57c0-8.514,6.903-15.418,15.418-15.418c8.516,0,15.418,6.904,15.418,15.418v42.263     c1.59-0.177,3.195-0.35,4.82-0.512v-49.462c0-8.514,6.903-15.418,15.418-15.418c8.516,0,15.418,6.904,15.418,15.418v47.544     c7.765-0.205,15.845-0.214,24.237,0.005C494.564,143.015,459.24,87.479,406.746,49.197C362.475,16.918,310.249,0,256.487,0     c-13.318,0-26.728,1.038-40.138,3.138C148.806,13.713,89.426,49.957,49.144,105.196C21.561,143.02,5.201,186.652,1.019,232.088     c19.057-2.684,37.594-4.826,55.641-6.514V164.164z" id="svg_4" fill="#ffffff" fill-opacity="1"></path>			<path d="M105.139,462.796c55.237,40.282,122.857,56.645,190.397,46.064c15.545-2.433,30.648-6.243,45.196-11.315     c-58.13-19.006-140.477-37.81-242.777-40.203C100.316,459.193,102.701,461.02,105.139,462.796z" id="svg_5" fill="#ffffff" fill-opacity="1"></path>			<path d="M10.02,327.047c3.327,11.604,7.452,22.887,12.325,33.791c101.922-7.721,198.595-1.486,287.499,18.557     c65.204,14.703,111.522,33.68,137.748,46.256c5.302-6.012,10.363-12.291,15.144-18.85c3.848-5.276,7.473-10.668,10.882-16.16     c-17.793-9.313-56.764-27.509-115.179-43.008C285.307,328.231,166.386,309.375,10.02,327.047z" id="svg_6" fill="#ffffff" fill-opacity="1"></path>			<path d="M38.139,390.655c7.8,12.614,16.715,24.538,26.666,35.661c140.306-1.622,248.174,27.289,314.096,51.909     c0.814,0.304,1.576,0.685,2.305,1.104c15.361-8.605,29.808-18.79,43.12-30.457C368.246,423.791,236.084,378.128,38.139,390.655z" id="svg_7" fill="#ffffff" fill-opacity="1"></path>			<path d="M511.212,237.412c-50.231-1.835-88.566,5.202-114.13,12.604c53.802,14.492,91.481,30.964,112.451,41.463     C511.997,273.708,512.566,255.604,511.212,237.412z" id="svg_8" fill="#ffffff" fill-opacity="1"></path>			<path d="M348.938,270.183c-2.448,5.275-7.779,8.943-13.978,8.943H72.079c-8.516,0-15.418-6.904-15.418-15.418v-7.163     c-18.325,1.761-37.187,4.016-56.59,6.838c0.33,10.705,1.324,21.458,3.008,32.21c0.062,0.398,0.137,0.789,0.2,1.187     c163.583-18.944,288.19,1.007,364.688,21.482c60.785,16.269,101.164,35.117,120.336,45.223     c6.109-13.133,11.055-26.703,14.817-40.581c-17.796-9.448-60.364-29.677-125.537-46.114     C368.678,274.545,359.1,272.326,348.938,270.183z" id="svg_9" fill="#ffffff" fill-opacity="1"></path>			<polygon points="319.542,248.289 319.542,175.622 260.43,154.872 260.43,248.289    " id="svg_10" fill="#ffffff" fill-opacity="1"></polygon>			<path d="M229.593,248.289L229.593,248.289v-84.683H87.497v84.683h45.612v-17.473c0-8.514,6.903-15.418,15.418-15.418     s15.418,6.904,15.418,15.418v17.474H229.593z" id="svg_11" fill="#ffffff" fill-opacity="1"></path>			<polygon points="127.375,132.77 197.471,132.77 157.764,118.832    " id="svg_12" fill="#ffffff" fill-opacity="1"></polygon>		</g>	</g></g><g id="svg_13"></g><g id="svg_14"></g><g id="svg_15"></g><g id="svg_16"></g><g id="svg_17"></g><g id="svg_18"></g><g id="svg_19"></g><g id="svg_20"></g><g id="svg_21"></g><g id="svg_22"></g><g id="svg_23"></g><g id="svg_24"></g><g id="svg_25"></g><g id="svg_26"></g><g id="svg_27"></g></g></svg>